<svg width="1459" height="592" viewBox="0 0 1459 592" fill="none" xmlns="http://www.w3.org/2000/svg">
<path d="M304 373V270H404V373H304Z" fill="#000022"/>
<path d="M403.552 57C403.552 29.3858 425.938 7 453.552 7H457C484.614 7 507 29.3858 507 57V534.586C507 562.2 484.614 584.586 457 584.586H453.552C425.938 584.586 403.552 562.2 403.552 534.586V57Z" fill="#000022"/>
<path d="M304.414 285.057V86.7816C301.54 60.9195 277.69 8.76434 205.276 7.0402C132.862 5.31606 107.575 59.4827 103.983 86.7816C104.831 101.622 109.032 125.372 119.069 142.698C103.983 144.893 73.8103 154.454 73.8103 175.143V201.005C53.6954 202.442 14.3276 220.402 17.7759 280.747C20.6494 292.96 31.569 317.816 52.2586 319.54C37.1724 320.258 7 333.333 7 379.885C10.5919 405.028 24.6724 455.316 52.2586 455.316H69.5V504.885C69.5 517.097 78.1207 541.523 112.603 541.523H160.017C156.425 555.891 161.741 584.626 211.741 584.626H254.845C269.931 586.063 300.103 579.454 300.103 541.523V476.868C300.103 465.373 293.638 442.385 267.776 442.385C278.552 441.666 300.103 432.471 300.103 401.437V366.954C299.437 352.297 291.851 324.049 267.377 320.022C282.5 320.248 304.414 313.665 304.414 285.057V315.5L281 322.5L287.525 331L304.414 353V327V315.5V285.057Z" fill="url(#paint0_linear_117_447)"/>
<path d="M304 373H297.5V379.5H304V373ZM304 270V263.5H297.5V270H304ZM404 270H410.5V263.5H404V270ZM404 373V379.5H410.5V373H404ZM304.414 86.7816H310.914V86.4216L310.874 86.0638L304.414 86.7816ZM103.983 86.7816L97.5383 85.9336L97.4584 86.5409L97.4933 87.1524L103.983 86.7816ZM149.241 164.368L148.9 170.859L148.9 170.859L149.241 164.368ZM211.741 164.368L213.797 158.201L212.796 157.868H211.741V164.368ZM17.7759 280.747L11.2865 281.118L11.3188 281.684L11.4487 282.236L17.7759 280.747ZM52.2586 319.54L52.5678 326.033L52.7984 313.062L52.2586 319.54ZM7 379.885H0.5V380.347L0.565328 380.804L7 379.885ZM103.983 455.316V461.816H105.235L106.397 461.351L103.983 455.316ZM160.017 541.523L166.323 543.099L168.342 535.023H160.017V541.523ZM254.845 584.626L255.461 578.155L255.154 578.126H254.845V584.626ZM211.741 442.385V435.885H211.028L210.331 436.04L211.741 442.385ZM300.103 366.954H306.603V366.806L306.597 366.659L300.103 366.954ZM168.638 319.54V313.04H167.258L165.998 313.6L168.638 319.54ZM281 322.5L279.138 316.272L270.1 318.975L275.844 326.458L281 322.5ZM304.414 353L299.258 356.958L310.914 372.142V353H304.414ZM287.525 331L282.369 334.958L282.369 334.958L287.525 331ZM310.5 373V270H297.5V373H310.5ZM304 276.5H404V263.5H304V276.5ZM397.5 270V373H410.5V270H397.5ZM404 366.5H304V379.5H404V366.5ZM453.552 13.5H457V0.5H453.552V13.5ZM500.5 57V534.586H513.5V57H500.5ZM457 578.086H453.552V591.086H457V578.086ZM410.052 534.586V57H397.052V534.586H410.052ZM453.552 578.086C429.528 578.086 410.052 558.611 410.052 534.586H397.052C397.052 565.79 422.348 591.086 453.552 591.086V578.086ZM500.5 534.586C500.5 558.611 481.025 578.086 457 578.086V591.086C488.204 591.086 513.5 565.79 513.5 534.586H500.5ZM457 13.5C481.025 13.5 500.5 32.9756 500.5 57H513.5C513.5 25.7959 488.204 0.5 457 0.5V13.5ZM453.552 0.5C422.348 0.5 397.052 25.7959 397.052 57H410.052C410.052 32.9756 429.528 13.5 453.552 13.5V0.5ZM310.914 285.057V86.7816H297.914V285.057H310.914ZM310.874 86.0638C309.299 71.8848 302.096 51.0355 285.676 33.4263C269.084 15.6322 243.347 1.44482 205.431 0.542041L205.121 13.5384C239.618 14.3597 262.014 27.112 276.168 42.292C290.496 57.6569 296.655 75.8163 297.954 87.4994L310.874 86.0638ZM205.431 0.542041C167.379 -0.363961 141.182 13.4889 124.098 31.5621C107.21 49.427 99.4876 71.119 97.5383 85.9336L110.427 87.6295C112.07 75.1453 118.787 56.1046 133.545 40.4924C148.106 25.0886 170.759 12.7202 205.121 13.5384L205.431 0.542041ZM148.9 170.859C164.277 171.668 177.313 172.61 187.028 170.752L184.585 157.983C176.848 159.464 165.924 158.737 149.583 157.877L148.9 170.859ZM187.028 170.752C195.294 169.171 202.1 165.417 206.409 157.607C210.386 150.401 211.776 140.497 211.776 127.73H198.776C198.776 140.052 197.334 147.146 195.027 151.326C193.054 154.902 190.125 156.924 184.585 157.983L187.028 170.752ZM211.776 127.73C211.776 109.52 204.882 97.3673 195.612 89.9072C186.62 82.6717 175.942 80.2816 168.638 80.2816V93.2816C173.546 93.2816 181.187 94.9862 187.462 100.035C193.457 104.86 198.776 113.18 198.776 127.73H211.776ZM149.241 170.868H185.807V157.868H149.241V170.868ZM185.807 170.868H211.741V157.868H185.807V170.868ZM209.686 170.534C212.239 171.385 216.269 173.357 219.534 176.273C222.784 179.177 224.638 182.401 224.638 185.919H237.638C237.638 177.368 233.026 170.895 228.195 166.578C223.378 162.275 217.709 159.505 213.797 158.201L209.686 170.534ZM97.4933 87.1524C98.3692 102.48 102.685 127.382 113.444 145.956L124.693 139.44C115.379 123.361 111.292 100.764 110.472 86.4108L97.4933 87.1524ZM113.444 145.956C120.949 158.912 132.354 169.988 148.9 170.859L149.583 157.877C139.281 157.334 131.125 150.544 124.693 139.44L113.444 145.956ZM118.133 136.266C110.059 137.44 97.9306 140.564 87.6199 146.306C77.5259 151.927 67.3103 161.189 67.3103 175.143H80.3103C80.3103 168.409 85.181 162.544 93.9448 157.664C102.492 152.904 112.992 150.151 120.005 149.131L118.133 136.266ZM67.3103 175.143V201.005H80.3103V175.143H67.3103ZM74.1195 207.498C81.1431 207.164 91.5249 207.901 99.8747 210.939C108.325 214.013 112.569 218.473 112.569 224.712H125.569C125.569 210.262 114.727 202.509 104.319 198.723C93.8114 194.9 81.5638 194.129 73.5012 194.513L74.1195 207.498ZM73.3472 194.522C61.9116 195.339 45.4805 200.753 32.3063 214.245C18.9406 227.932 9.47243 249.372 11.2865 281.118L24.2653 280.376C22.6311 251.777 31.1227 234.064 41.6075 223.327C52.2839 212.393 65.5942 208.109 74.2735 207.489L73.3472 194.522ZM11.4487 282.236C13.0375 288.988 16.784 299.075 23.0445 307.851C29.2825 316.596 38.6973 324.932 51.7188 326.018L52.7984 313.062C45.1303 312.423 38.7405 307.469 33.6279 300.302C28.5379 293.166 25.3878 284.718 24.1031 279.258L11.4487 282.236ZM51.9495 313.047C42.9765 313.475 30.1107 317.479 19.4383 327.867C8.59267 338.423 0.5 355.091 0.5 379.885H13.5C13.5 358.127 20.4935 344.981 28.5057 337.183C36.691 329.216 46.4546 326.324 52.5678 326.033L51.9495 313.047ZM0.565328 380.804C2.42028 393.789 6.97462 413.323 14.7533 429.804C18.6403 438.039 23.4988 445.872 29.5241 451.727C35.6101 457.641 43.2027 461.816 52.2586 461.816V448.816C47.5214 448.816 43.0092 446.704 38.5842 442.404C34.0985 438.045 30.04 431.734 26.5096 424.255C19.4535 409.305 15.1717 391.125 13.4347 378.966L0.565328 380.804ZM106.397 461.351C115.827 457.579 132.034 443.549 132.034 416.523H119.034C119.034 437.772 106.506 447.306 101.569 449.281L106.397 461.351ZM132.034 416.523C132.034 402.335 125.977 392.841 118.018 387.11C110.39 381.618 101.431 379.85 95.3621 379.85V392.85C99.3507 392.85 105.478 394.1 110.422 397.66C115.034 400.981 119.034 406.572 119.034 416.523H132.034ZM52.2586 461.816H69.5V448.816H52.2586V461.816ZM69.5 461.816H103.983V448.816H69.5V461.816ZM63 455.316V504.885H76V455.316H63ZM63 504.885C63 512.27 65.5451 522.994 73.1609 531.985C80.9868 541.224 93.6541 548.023 112.603 548.023V535.023C97.0701 535.023 88.1857 529.609 83.0805 523.582C77.7652 517.307 76 509.712 76 504.885H63ZM112.603 548.023H160.017V535.023H112.603V548.023ZM153.711 539.946C151.549 548.596 152.019 561.582 160.692 572.504C169.481 583.574 185.564 591.126 211.741 591.126V578.126C187.919 578.126 176.343 571.31 170.873 564.42C165.285 557.383 164.894 548.818 166.323 543.099L153.711 539.946ZM211.741 591.126H254.845V578.126H211.741V591.126ZM254.229 591.097C262.835 591.917 275.735 590.497 286.708 583.265C298.101 575.756 306.603 562.502 306.603 541.523H293.603C293.603 558.474 287.02 567.49 279.555 572.41C271.67 577.606 261.941 578.773 255.461 578.155L254.229 591.097ZM306.603 541.523V476.868H293.603V541.523H306.603ZM306.603 476.868C306.603 470.161 304.768 460.186 299.025 451.679C293.049 442.825 283.008 435.885 267.776 435.885V448.885C278.406 448.885 284.529 453.439 288.25 458.952C292.206 464.813 293.603 472.079 293.603 476.868H306.603ZM267.776 435.885H211.741V448.885H267.776V435.885ZM210.331 436.04C209.927 436.129 209.523 436.236 209.123 436.359L212.922 448.791C213.016 448.763 213.093 448.743 213.152 448.73L210.331 436.04ZM209.123 436.359C198.606 439.573 185.845 454.092 185.845 485.488H198.845C198.845 457.039 210.125 449.646 212.922 448.791L209.123 436.359ZM185.845 485.488C185.845 502.655 191.907 513.779 200.633 520.155C209.025 526.286 218.9 527.298 225.531 526.414L223.813 513.528C219.669 514.081 213.38 513.368 208.302 509.658C203.559 506.192 198.845 499.356 198.845 485.488H185.845ZM209.686 436.218C209.711 436.21 209.734 436.204 209.754 436.2L212.291 448.95C212.806 448.848 213.309 448.714 213.797 448.551L209.686 436.218ZM209.754 436.2C210.749 436.002 208.364 437.307 205.074 430.281C201.833 423.36 198.845 410.096 198.845 386.35H185.845C185.845 410.813 188.867 426.324 193.301 435.794C197.686 445.159 204.639 450.472 212.291 448.95L209.754 436.2ZM268.208 448.87C274.905 448.424 284.453 445.441 292.409 438.037C300.566 430.446 306.603 418.616 306.603 401.437H293.603C293.603 415.291 288.865 423.576 283.552 428.521C278.038 433.653 271.423 435.627 267.343 435.899L268.208 448.87ZM306.603 401.437V366.954H293.603V401.437H306.603ZM306.597 366.659C306.23 358.593 303.994 346.869 298.397 336.43C292.747 325.893 283.283 316.052 268.432 313.608L266.322 326.436C275.946 328.019 282.512 334.315 286.94 342.573C291.42 350.929 293.311 360.658 293.61 367.249L306.597 366.659ZM268.432 313.608C266.154 313.234 263.78 313.04 261.31 313.04V326.04C263.099 326.04 264.766 326.18 266.322 326.436L268.432 313.608ZM261.31 313.04H168.638V326.04H261.31V313.04ZM165.998 313.6C165.064 314.015 163.382 314.309 161.43 312.054C158.949 309.187 155.741 301.824 155.741 285.057H142.741C142.741 302.774 145.999 314.089 151.6 320.561C157.73 327.645 165.746 327.938 171.278 325.48L165.998 313.6ZM155.741 285.057C155.741 269.983 161.815 262.527 168.624 258.646C175.969 254.459 185.156 253.914 191.381 254.847L193.309 241.991C185.166 240.77 172.801 241.302 162.186 247.352C151.036 253.708 142.741 265.649 142.741 285.057H155.741ZM260.346 325.968C262.463 326.286 264.804 326.484 267.28 326.521L267.474 313.523C265.561 313.494 263.8 313.341 262.275 313.112L260.346 325.968ZM267.28 326.521C275.646 326.647 286.429 324.925 295.311 318.665C304.561 312.146 310.914 301.28 310.914 285.057H297.914C297.914 297.442 293.31 304.171 287.822 308.039C281.966 312.167 274.231 313.624 267.474 313.523L267.28 326.521ZM297.914 285.057V315.5H310.914V285.057H297.914ZM282.862 328.728L306.276 321.728L302.552 309.272L279.138 316.272L282.862 328.728ZM297.914 315.5V327H310.914V315.5H297.914ZM297.914 327V353H310.914V327H297.914ZM309.57 349.042L292.681 327.042L282.369 334.958L299.258 356.958L309.57 349.042ZM292.681 327.042L286.156 318.542L275.844 326.458L282.369 334.958L292.681 327.042ZM302.916 320.675L286.027 324.675L289.023 337.325L305.912 333.325L302.916 320.675Z" fill="#000022"/>
<path d="M588.831 588.6C580.565 588.6 573.631 586.733 568.031 583C562.431 579 558.965 573.667 557.631 567C556.298 560.067 557.498 552.333 561.231 543.8L660.831 329.4C665.631 319 671.498 311.4 678.431 306.6C685.631 301.8 693.765 299.4 702.831 299.4C711.898 299.4 719.765 301.8 726.431 306.6C733.365 311.4 739.365 319 744.431 329.4L844.031 543.8C848.298 552.333 849.765 560.067 848.431 567C847.365 573.933 844.031 579.267 838.431 583C833.098 586.733 826.431 588.6 818.431 588.6C807.765 588.6 799.498 586.2 793.631 581.4C788.031 576.6 782.965 568.867 778.431 558.2L756.831 507.4L784.831 527.8H620.031L648.431 507.4L626.831 558.2C622.031 568.867 617.098 576.6 612.031 581.4C606.965 586.2 599.231 588.6 588.831 588.6ZM702.031 379.8L655.631 490.6L644.431 471.4H760.831L749.631 490.6L702.831 379.8H702.031ZM952.269 588.6C940.535 588.6 931.469 585.4 925.069 579C918.669 572.333 915.469 563.133 915.469 551.4V363H852.669C842.802 363 835.202 360.467 829.869 355.4C824.802 350.067 822.269 342.6 822.269 333C822.269 323.133 824.802 315.667 829.869 310.6C835.202 305.533 842.802 303 852.669 303H1051.87C1061.74 303 1069.2 305.533 1074.27 310.6C1079.6 315.667 1082.27 323.133 1082.27 333C1082.27 342.6 1079.6 350.067 1074.27 355.4C1069.2 360.467 1061.74 363 1051.87 363H989.069V551.4C989.069 563.133 986.002 572.333 979.869 579C973.735 585.4 964.535 588.6 952.269 588.6ZM1157.59 588.6C1146.39 588.6 1137.73 585.267 1131.59 578.6C1125.46 571.933 1122.39 562.333 1122.39 549.8V423.4C1122.39 410.867 1125.46 401.267 1131.59 394.6C1137.73 387.933 1146.39 384.6 1157.59 384.6C1169.06 384.6 1177.86 387.933 1183.99 394.6C1190.39 401.267 1193.59 410.867 1193.59 423.4V549.8C1193.59 562.333 1190.53 571.933 1184.39 578.6C1178.26 585.267 1169.33 588.6 1157.59 588.6ZM1157.59 356.2C1145.06 356.2 1135.33 353.267 1128.39 347.4C1121.73 341.533 1118.39 333 1118.39 321.8C1118.39 310.867 1121.73 302.467 1128.39 296.6C1135.33 290.733 1145.06 287.8 1157.59 287.8C1170.66 287.8 1180.53 290.733 1187.19 296.6C1193.86 302.467 1197.19 310.867 1197.19 321.8C1197.19 333 1193.86 341.533 1187.19 347.4C1180.53 353.267 1170.66 356.2 1157.59 356.2ZM1342.09 589.4C1318.09 589.4 1297.29 585.267 1279.69 577C1262.36 568.467 1249.03 556.467 1239.69 541C1230.36 525.533 1225.69 507.267 1225.69 486.2C1225.69 465.933 1230.09 448.2 1238.89 433C1247.96 417.533 1260.23 405.533 1275.69 397C1291.43 388.2 1309.29 383.8 1329.29 383.8C1343.96 383.8 1357.29 386.2 1369.29 391C1381.29 395.533 1391.56 402.333 1400.09 411.4C1408.63 420.2 1415.03 430.867 1419.29 443.4C1423.83 455.933 1426.09 469.933 1426.09 485.4C1426.09 490.733 1424.63 494.733 1421.69 497.4C1418.76 499.8 1414.09 501 1407.69 501H1285.29V467.4H1374.09L1367.69 472.6C1367.69 462.733 1366.36 454.733 1363.69 448.6C1361.03 442.467 1357.03 437.8 1351.69 434.6C1346.63 431.4 1340.23 429.8 1332.49 429.8C1324.23 429.8 1317.03 431.8 1310.89 435.8C1305.03 439.533 1300.49 445.133 1297.29 452.6C1294.09 460.067 1292.49 469.4 1292.49 480.6V484.2C1292.49 503.133 1296.63 516.733 1304.89 525C1313.43 533 1326.49 537 1344.09 537C1349.96 537 1356.63 536.333 1364.09 535C1371.83 533.4 1379.16 531.267 1386.09 528.6C1393.03 525.933 1399.03 525.533 1404.09 527.4C1409.16 529 1413.03 531.933 1415.69 536.2C1418.63 540.2 1420.23 544.867 1420.49 550.2C1420.76 555.267 1419.56 560.333 1416.89 565.4C1414.23 570.2 1409.83 573.933 1403.69 576.6C1394.36 580.867 1384.36 584.067 1373.69 586.2C1363.29 588.333 1352.76 589.4 1342.09 589.4Z" fill="#000022"/>
<defs>
<linearGradient id="paint0_linear_117_447" x1="155.707" y1="7" x2="155.707" y2="584.805" gradientUnits="userSpaceOnUse">
<stop offset="0.046875" stop-color="#21B6A8"/>
<stop offset="0.494792" stop-color="#18A558"/>
<stop offset="0.96875" stop-color="#A3EBB1"/>
</linearGradient>
</defs>
</svg>
